<mxfile host="app.diagrams.net" modified="2021-05-04T04:54:07.057Z" agent="5.0 (Windows NT 10.0; Win64; x64) AppleWebKit/537.36 (KHTML, like Gecko) Chrome/90.0.4430.93 Safari/537.36" etag="VD7iTl-BMz90zCLKeAYB" version="14.6.9" type="github">
  <diagram id="C5RBs43oDa-KdzZeNtuy" name="Page-1">
    <mxGraphModel dx="1422" dy="762" grid="1" gridSize="10" guides="1" tooltips="1" connect="1" arrows="1" fold="1" page="1" pageScale="1" pageWidth="827" pageHeight="1169" math="0" shadow="0">
      <root>
        <mxCell id="WIyWlLk6GJQsqaUBKTNV-0" />
        <mxCell id="WIyWlLk6GJQsqaUBKTNV-1" parent="WIyWlLk6GJQsqaUBKTNV-0" />
        <mxCell id="CEHg5lTLm4kWdgyplVmB-1" style="edgeStyle=orthogonalEdgeStyle;rounded=0;orthogonalLoop=1;jettySize=auto;html=1;exitX=0.5;exitY=1;exitDx=0;exitDy=0;entryX=0.5;entryY=0;entryDx=0;entryDy=0;" parent="WIyWlLk6GJQsqaUBKTNV-1" source="WIyWlLk6GJQsqaUBKTNV-3" target="CEHg5lTLm4kWdgyplVmB-0" edge="1">
          <mxGeometry relative="1" as="geometry" />
        </mxCell>
        <mxCell id="WIyWlLk6GJQsqaUBKTNV-3" value="요금계산" style="rounded=1;whiteSpace=wrap;html=1;fontSize=12;glass=0;strokeWidth=1;shadow=0;" parent="WIyWlLk6GJQsqaUBKTNV-1" vertex="1">
          <mxGeometry x="330" y="80" width="120" height="40" as="geometry" />
        </mxCell>
        <mxCell id="CEHg5lTLm4kWdgyplVmB-4" style="edgeStyle=orthogonalEdgeStyle;rounded=0;orthogonalLoop=1;jettySize=auto;html=1;exitX=0.5;exitY=1;exitDx=0;exitDy=0;entryX=0.5;entryY=0;entryDx=0;entryDy=0;" parent="WIyWlLk6GJQsqaUBKTNV-1" source="CEHg5lTLm4kWdgyplVmB-0" target="CEHg5lTLm4kWdgyplVmB-3" edge="1">
          <mxGeometry relative="1" as="geometry" />
        </mxCell>
        <mxCell id="CEHg5lTLm4kWdgyplVmB-0" value="인수 날짜&lt;br&gt;반납 날짜&lt;br&gt;인수 시간&lt;br&gt;반납 시간&lt;br&gt;상품코드&lt;br&gt;운전자 나이&lt;br&gt;거래처&lt;br&gt;거래처/직판 구분&lt;br&gt;운전자 연령&lt;br&gt;seasonFlag&lt;br&gt;요금계산법&lt;br&gt;기준산식 요율&lt;br&gt;totalAmt" style="shape=hexagon;perimeter=hexagonPerimeter2;whiteSpace=wrap;html=1;fixedSize=1;" parent="WIyWlLk6GJQsqaUBKTNV-1" vertex="1">
          <mxGeometry x="330" y="130" width="120" height="180" as="geometry" />
        </mxCell>
        <mxCell id="CEHg5lTLm4kWdgyplVmB-15" style="edgeStyle=orthogonalEdgeStyle;rounded=0;orthogonalLoop=1;jettySize=auto;html=1;exitX=0;exitY=0.5;exitDx=0;exitDy=0;entryX=0.5;entryY=0;entryDx=0;entryDy=0;" parent="WIyWlLk6GJQsqaUBKTNV-1" source="CEHg5lTLm4kWdgyplVmB-3" target="CEHg5lTLm4kWdgyplVmB-12" edge="1">
          <mxGeometry relative="1" as="geometry">
            <mxPoint x="210" y="420" as="targetPoint" />
            <Array as="points">
              <mxPoint x="205" y="375" />
              <mxPoint x="205" y="430" />
            </Array>
          </mxGeometry>
        </mxCell>
        <mxCell id="CEHg5lTLm4kWdgyplVmB-105" style="edgeStyle=orthogonalEdgeStyle;rounded=0;orthogonalLoop=1;jettySize=auto;html=1;exitX=0;exitY=0.5;exitDx=0;exitDy=0;entryX=0.5;entryY=0;entryDx=0;entryDy=0;" parent="WIyWlLk6GJQsqaUBKTNV-1" source="CEHg5lTLm4kWdgyplVmB-3" target="CEHg5lTLm4kWdgyplVmB-12" edge="1">
          <mxGeometry relative="1" as="geometry" />
        </mxCell>
        <mxCell id="CEHg5lTLm4kWdgyplVmB-236" style="edgeStyle=orthogonalEdgeStyle;rounded=0;orthogonalLoop=1;jettySize=auto;html=1;exitX=1;exitY=0.5;exitDx=0;exitDy=0;entryX=0.5;entryY=0;entryDx=0;entryDy=0;" parent="WIyWlLk6GJQsqaUBKTNV-1" source="CEHg5lTLm4kWdgyplVmB-3" target="CEHg5lTLm4kWdgyplVmB-111" edge="1">
          <mxGeometry relative="1" as="geometry" />
        </mxCell>
        <mxCell id="CEHg5lTLm4kWdgyplVmB-3" value="인수날짜 == 반납날짜" style="rhombus;whiteSpace=wrap;html=1;" parent="WIyWlLk6GJQsqaUBKTNV-1" vertex="1">
          <mxGeometry x="315" y="350" width="150" height="50" as="geometry" />
        </mxCell>
        <mxCell id="CEHg5lTLm4kWdgyplVmB-11" style="edgeStyle=orthogonalEdgeStyle;rounded=0;orthogonalLoop=1;jettySize=auto;html=1;exitX=0.5;exitY=1;exitDx=0;exitDy=0;entryX=0.5;entryY=0;entryDx=0;entryDy=0;" parent="WIyWlLk6GJQsqaUBKTNV-1" source="CEHg5lTLm4kWdgyplVmB-7" target="CEHg5lTLm4kWdgyplVmB-8" edge="1">
          <mxGeometry relative="1" as="geometry" />
        </mxCell>
        <mxCell id="CEHg5lTLm4kWdgyplVmB-7" value="read&lt;br&gt;거래처&lt;br&gt;상품코드&lt;br&gt;seasonFlag" style="shape=parallelogram;perimeter=parallelogramPerimeter;whiteSpace=wrap;html=1;fixedSize=1;" parent="WIyWlLk6GJQsqaUBKTNV-1" vertex="1">
          <mxGeometry x="145" y="515" width="120" height="60" as="geometry" />
        </mxCell>
        <mxCell id="RZ1_HY4zXpPiNoOnuPK8-3" style="edgeStyle=orthogonalEdgeStyle;rounded=0;orthogonalLoop=1;jettySize=auto;html=1;exitX=0.5;exitY=1;exitDx=0;exitDy=0;entryX=0.5;entryY=0;entryDx=0;entryDy=0;" edge="1" parent="WIyWlLk6GJQsqaUBKTNV-1" source="CEHg5lTLm4kWdgyplVmB-8" target="CEHg5lTLm4kWdgyplVmB-20">
          <mxGeometry relative="1" as="geometry" />
        </mxCell>
        <mxCell id="CEHg5lTLm4kWdgyplVmB-8" value="baseAmt =상품별 요금 검색(보험/대여료 구분하여 검색)" style="rounded=0;whiteSpace=wrap;html=1;" parent="WIyWlLk6GJQsqaUBKTNV-1" vertex="1">
          <mxGeometry x="127.5" y="660" width="155" height="30" as="geometry" />
        </mxCell>
        <mxCell id="CEHg5lTLm4kWdgyplVmB-16" style="edgeStyle=orthogonalEdgeStyle;rounded=0;orthogonalLoop=1;jettySize=auto;html=1;exitX=0.5;exitY=1;exitDx=0;exitDy=0;entryX=0.5;entryY=0;entryDx=0;entryDy=0;" parent="WIyWlLk6GJQsqaUBKTNV-1" source="CEHg5lTLm4kWdgyplVmB-12" target="CEHg5lTLm4kWdgyplVmB-13" edge="1">
          <mxGeometry relative="1" as="geometry" />
        </mxCell>
        <mxCell id="CEHg5lTLm4kWdgyplVmB-12" value="read&lt;br&gt;인수날짜" style="shape=parallelogram;perimeter=parallelogramPerimeter;whiteSpace=wrap;html=1;fixedSize=1;" parent="WIyWlLk6GJQsqaUBKTNV-1" vertex="1">
          <mxGeometry x="167.5" y="410" width="75" height="30" as="geometry" />
        </mxCell>
        <mxCell id="CEHg5lTLm4kWdgyplVmB-17" style="edgeStyle=orthogonalEdgeStyle;rounded=0;orthogonalLoop=1;jettySize=auto;html=1;exitX=0.5;exitY=1;exitDx=0;exitDy=0;entryX=0.5;entryY=0;entryDx=0;entryDy=0;" parent="WIyWlLk6GJQsqaUBKTNV-1" source="CEHg5lTLm4kWdgyplVmB-13" target="CEHg5lTLm4kWdgyplVmB-7" edge="1">
          <mxGeometry relative="1" as="geometry" />
        </mxCell>
        <mxCell id="CEHg5lTLm4kWdgyplVmB-13" value="seasonFlag =시즌선택" style="rounded=0;whiteSpace=wrap;html=1;" parent="WIyWlLk6GJQsqaUBKTNV-1" vertex="1">
          <mxGeometry x="140" y="480" width="130" height="20" as="geometry" />
        </mxCell>
        <mxCell id="CEHg5lTLm4kWdgyplVmB-18" value="YES" style="text;html=1;strokeColor=none;fillColor=none;align=center;verticalAlign=middle;whiteSpace=wrap;rounded=0;" parent="WIyWlLk6GJQsqaUBKTNV-1" vertex="1">
          <mxGeometry x="212.5" y="360" width="40" height="20" as="geometry" />
        </mxCell>
        <mxCell id="CEHg5lTLm4kWdgyplVmB-28" style="edgeStyle=orthogonalEdgeStyle;rounded=0;orthogonalLoop=1;jettySize=auto;html=1;exitX=0.5;exitY=1;exitDx=0;exitDy=0;entryX=0.5;entryY=0;entryDx=0;entryDy=0;" parent="WIyWlLk6GJQsqaUBKTNV-1" source="CEHg5lTLm4kWdgyplVmB-20" target="CEHg5lTLm4kWdgyplVmB-27" edge="1">
          <mxGeometry relative="1" as="geometry" />
        </mxCell>
        <mxCell id="CEHg5lTLm4kWdgyplVmB-20" value="read&lt;br&gt;반납시간 - 인수시간&lt;br&gt;요금계산법" style="shape=parallelogram;perimeter=parallelogramPerimeter;whiteSpace=wrap;html=1;fixedSize=1;" parent="WIyWlLk6GJQsqaUBKTNV-1" vertex="1">
          <mxGeometry x="130.5" y="820" width="149" height="40" as="geometry" />
        </mxCell>
        <mxCell id="CEHg5lTLm4kWdgyplVmB-30" style="edgeStyle=orthogonalEdgeStyle;rounded=0;orthogonalLoop=1;jettySize=auto;html=1;exitX=0.5;exitY=1;exitDx=0;exitDy=0;entryX=0.5;entryY=0;entryDx=0;entryDy=0;" parent="WIyWlLk6GJQsqaUBKTNV-1" source="CEHg5lTLm4kWdgyplVmB-27" target="CEHg5lTLm4kWdgyplVmB-29" edge="1">
          <mxGeometry relative="1" as="geometry" />
        </mxCell>
        <mxCell id="CEHg5lTLm4kWdgyplVmB-27" value="기준산식 요율 = &lt;br&gt;기준산식 요율 조회" style="rounded=0;whiteSpace=wrap;html=1;" parent="WIyWlLk6GJQsqaUBKTNV-1" vertex="1">
          <mxGeometry x="145" y="940" width="120" height="30" as="geometry" />
        </mxCell>
        <mxCell id="CEHg5lTLm4kWdgyplVmB-240" style="edgeStyle=orthogonalEdgeStyle;rounded=0;orthogonalLoop=1;jettySize=auto;html=1;exitX=0.5;exitY=1;exitDx=0;exitDy=0;entryX=0.5;entryY=0;entryDx=0;entryDy=0;" parent="WIyWlLk6GJQsqaUBKTNV-1" source="CEHg5lTLm4kWdgyplVmB-29" target="CEHg5lTLm4kWdgyplVmB-184" edge="1">
          <mxGeometry relative="1" as="geometry" />
        </mxCell>
        <mxCell id="CEHg5lTLm4kWdgyplVmB-29" value="요금 계산&lt;br&gt;totalAmt =&lt;br&gt;기준산식 요율 * baseAmt" style="rounded=0;whiteSpace=wrap;html=1;" parent="WIyWlLk6GJQsqaUBKTNV-1" vertex="1">
          <mxGeometry x="145" y="1045" width="120" height="60" as="geometry" />
        </mxCell>
        <mxCell id="CEHg5lTLm4kWdgyplVmB-106" style="edgeStyle=orthogonalEdgeStyle;rounded=0;orthogonalLoop=1;jettySize=auto;html=1;exitX=0.5;exitY=1;exitDx=0;exitDy=0;entryX=0.5;entryY=0;entryDx=0;entryDy=0;" parent="WIyWlLk6GJQsqaUBKTNV-1" source="CEHg5lTLm4kWdgyplVmB-107" target="CEHg5lTLm4kWdgyplVmB-109" edge="1">
          <mxGeometry relative="1" as="geometry" />
        </mxCell>
        <mxCell id="CEHg5lTLm4kWdgyplVmB-107" value="read&lt;br&gt;거래처&lt;br&gt;상품코드&lt;br&gt;seasonFlag" style="shape=parallelogram;perimeter=parallelogramPerimeter;whiteSpace=wrap;html=1;fixedSize=1;" parent="WIyWlLk6GJQsqaUBKTNV-1" vertex="1">
          <mxGeometry x="804.5" y="775" width="120" height="60" as="geometry" />
        </mxCell>
        <mxCell id="CEHg5lTLm4kWdgyplVmB-153" style="edgeStyle=orthogonalEdgeStyle;rounded=0;orthogonalLoop=1;jettySize=auto;html=1;exitX=0.5;exitY=1;exitDx=0;exitDy=0;entryX=0.5;entryY=0;entryDx=0;entryDy=0;" parent="WIyWlLk6GJQsqaUBKTNV-1" source="CEHg5lTLm4kWdgyplVmB-109" target="CEHg5lTLm4kWdgyplVmB-152" edge="1">
          <mxGeometry relative="1" as="geometry" />
        </mxCell>
        <mxCell id="CEHg5lTLm4kWdgyplVmB-109" value="baseAmt =상품별 요금 검색&lt;br&gt;" style="rounded=0;whiteSpace=wrap;html=1;" parent="WIyWlLk6GJQsqaUBKTNV-1" vertex="1">
          <mxGeometry x="787" y="860" width="155" height="15" as="geometry" />
        </mxCell>
        <mxCell id="CEHg5lTLm4kWdgyplVmB-110" style="edgeStyle=orthogonalEdgeStyle;rounded=0;orthogonalLoop=1;jettySize=auto;html=1;exitX=0.5;exitY=1;exitDx=0;exitDy=0;entryX=0.5;entryY=0;entryDx=0;entryDy=0;startArrow=none;" parent="WIyWlLk6GJQsqaUBKTNV-1" source="CEHg5lTLm4kWdgyplVmB-124" target="CEHg5lTLm4kWdgyplVmB-113" edge="1">
          <mxGeometry relative="1" as="geometry" />
        </mxCell>
        <mxCell id="CEHg5lTLm4kWdgyplVmB-125" style="edgeStyle=orthogonalEdgeStyle;rounded=0;orthogonalLoop=1;jettySize=auto;html=1;exitX=0.5;exitY=1;exitDx=0;exitDy=0;entryX=0.5;entryY=0;entryDx=0;entryDy=0;" parent="WIyWlLk6GJQsqaUBKTNV-1" source="CEHg5lTLm4kWdgyplVmB-111" target="CEHg5lTLm4kWdgyplVmB-124" edge="1">
          <mxGeometry relative="1" as="geometry" />
        </mxCell>
        <mxCell id="CEHg5lTLm4kWdgyplVmB-111" value="read&lt;br&gt;count =&lt;br&gt;반납날짜 -인수날짜&lt;br&gt;insuFlag =&amp;nbsp;&lt;br&gt;반납날짜 -인수날짜" style="shape=parallelogram;perimeter=parallelogramPerimeter;whiteSpace=wrap;html=1;fixedSize=1;" parent="WIyWlLk6GJQsqaUBKTNV-1" vertex="1">
          <mxGeometry x="793.88" y="400" width="141.25" height="70" as="geometry" />
        </mxCell>
        <mxCell id="CEHg5lTLm4kWdgyplVmB-112" style="edgeStyle=orthogonalEdgeStyle;rounded=0;orthogonalLoop=1;jettySize=auto;html=1;exitX=0.5;exitY=1;exitDx=0;exitDy=0;entryX=0.5;entryY=0;entryDx=0;entryDy=0;" parent="WIyWlLk6GJQsqaUBKTNV-1" source="CEHg5lTLm4kWdgyplVmB-113" target="CEHg5lTLm4kWdgyplVmB-107" edge="1">
          <mxGeometry relative="1" as="geometry" />
        </mxCell>
        <mxCell id="CEHg5lTLm4kWdgyplVmB-113" value="seasonFlag =시즌선택" style="rounded=0;whiteSpace=wrap;html=1;" parent="WIyWlLk6GJQsqaUBKTNV-1" vertex="1">
          <mxGeometry x="799.5" y="740" width="130" height="20" as="geometry" />
        </mxCell>
        <mxCell id="CEHg5lTLm4kWdgyplVmB-120" style="edgeStyle=orthogonalEdgeStyle;rounded=0;orthogonalLoop=1;jettySize=auto;html=1;exitX=0.5;exitY=1;exitDx=0;exitDy=0;entryX=0.5;entryY=0;entryDx=0;entryDy=0;" parent="WIyWlLk6GJQsqaUBKTNV-1" source="CEHg5lTLm4kWdgyplVmB-121" target="CEHg5lTLm4kWdgyplVmB-122" edge="1">
          <mxGeometry relative="1" as="geometry" />
        </mxCell>
        <mxCell id="CEHg5lTLm4kWdgyplVmB-121" value="기준산식 요율 = &lt;br&gt;기준산식 요율 조회" style="rounded=0;whiteSpace=wrap;html=1;" parent="WIyWlLk6GJQsqaUBKTNV-1" vertex="1">
          <mxGeometry x="806.51" y="1220" width="120" height="30" as="geometry" />
        </mxCell>
        <mxCell id="CEHg5lTLm4kWdgyplVmB-177" style="edgeStyle=orthogonalEdgeStyle;rounded=0;orthogonalLoop=1;jettySize=auto;html=1;exitX=0.5;exitY=1;exitDx=0;exitDy=0;entryX=0.5;entryY=0;entryDx=0;entryDy=0;" parent="WIyWlLk6GJQsqaUBKTNV-1" source="CEHg5lTLm4kWdgyplVmB-122" target="CEHg5lTLm4kWdgyplVmB-170" edge="1">
          <mxGeometry relative="1" as="geometry" />
        </mxCell>
        <mxCell id="CEHg5lTLm4kWdgyplVmB-122" value="요금 계산&lt;br&gt;totalAmt +=&lt;br&gt;기준산식 요율 * baseAmt" style="rounded=0;whiteSpace=wrap;html=1;" parent="WIyWlLk6GJQsqaUBKTNV-1" vertex="1">
          <mxGeometry x="806.51" y="1280" width="120" height="60" as="geometry" />
        </mxCell>
        <mxCell id="CEHg5lTLm4kWdgyplVmB-129" style="edgeStyle=orthogonalEdgeStyle;rounded=0;orthogonalLoop=1;jettySize=auto;html=1;exitX=0;exitY=0.5;exitDx=0;exitDy=0;" parent="WIyWlLk6GJQsqaUBKTNV-1" source="CEHg5lTLm4kWdgyplVmB-124" target="CEHg5lTLm4kWdgyplVmB-128" edge="1">
          <mxGeometry relative="1" as="geometry" />
        </mxCell>
        <mxCell id="CEHg5lTLm4kWdgyplVmB-171" style="edgeStyle=orthogonalEdgeStyle;rounded=0;orthogonalLoop=1;jettySize=auto;html=1;exitX=1;exitY=0.5;exitDx=0;exitDy=0;entryX=0.5;entryY=0;entryDx=0;entryDy=0;" parent="WIyWlLk6GJQsqaUBKTNV-1" source="CEHg5lTLm4kWdgyplVmB-124" target="CEHg5lTLm4kWdgyplVmB-137" edge="1">
          <mxGeometry relative="1" as="geometry" />
        </mxCell>
        <mxCell id="CEHg5lTLm4kWdgyplVmB-124" value="count == 0" style="rhombus;whiteSpace=wrap;html=1;" parent="WIyWlLk6GJQsqaUBKTNV-1" vertex="1">
          <mxGeometry x="824.75" y="500" width="79.5" height="30" as="geometry" />
        </mxCell>
        <mxCell id="CEHg5lTLm4kWdgyplVmB-126" value="" style="edgeStyle=orthogonalEdgeStyle;rounded=0;orthogonalLoop=1;jettySize=auto;html=1;exitX=0.5;exitY=1;exitDx=0;exitDy=0;entryX=0.5;entryY=0;entryDx=0;entryDy=0;endArrow=none;" parent="WIyWlLk6GJQsqaUBKTNV-1" source="CEHg5lTLm4kWdgyplVmB-111" target="CEHg5lTLm4kWdgyplVmB-124" edge="1">
          <mxGeometry relative="1" as="geometry">
            <mxPoint x="864.5050000000001" y="470" as="sourcePoint" />
            <mxPoint x="864.5" y="600" as="targetPoint" />
          </mxGeometry>
        </mxCell>
        <mxCell id="CEHg5lTLm4kWdgyplVmB-135" style="edgeStyle=orthogonalEdgeStyle;rounded=0;orthogonalLoop=1;jettySize=auto;html=1;exitX=0.5;exitY=1;exitDx=0;exitDy=0;entryX=0.5;entryY=0;entryDx=0;entryDy=0;" parent="WIyWlLk6GJQsqaUBKTNV-1" source="CEHg5lTLm4kWdgyplVmB-128" target="CEHg5lTLm4kWdgyplVmB-113" edge="1">
          <mxGeometry relative="1" as="geometry">
            <Array as="points">
              <mxPoint x="753" y="700" />
              <mxPoint x="865" y="700" />
            </Array>
          </mxGeometry>
        </mxCell>
        <mxCell id="CEHg5lTLm4kWdgyplVmB-128" value="read&lt;br&gt;반납날짜" style="shape=parallelogram;perimeter=parallelogramPerimeter;whiteSpace=wrap;html=1;fixedSize=1;" parent="WIyWlLk6GJQsqaUBKTNV-1" vertex="1">
          <mxGeometry x="717.01" y="600" width="75" height="30" as="geometry" />
        </mxCell>
        <mxCell id="CEHg5lTLm4kWdgyplVmB-131" value="YES" style="text;html=1;strokeColor=none;fillColor=none;align=center;verticalAlign=middle;whiteSpace=wrap;rounded=0;" parent="WIyWlLk6GJQsqaUBKTNV-1" vertex="1">
          <mxGeometry x="764.5" y="500" width="40" height="20" as="geometry" />
        </mxCell>
        <mxCell id="CEHg5lTLm4kWdgyplVmB-132" value="NO" style="text;html=1;strokeColor=none;fillColor=none;align=center;verticalAlign=middle;whiteSpace=wrap;rounded=0;" parent="WIyWlLk6GJQsqaUBKTNV-1" vertex="1">
          <mxGeometry x="967" y="500" width="40" height="20" as="geometry" />
        </mxCell>
        <mxCell id="CEHg5lTLm4kWdgyplVmB-141" style="edgeStyle=orthogonalEdgeStyle;rounded=0;orthogonalLoop=1;jettySize=auto;html=1;exitX=1;exitY=0.5;exitDx=0;exitDy=0;entryX=0.5;entryY=0;entryDx=0;entryDy=0;" parent="WIyWlLk6GJQsqaUBKTNV-1" source="CEHg5lTLm4kWdgyplVmB-137" edge="1">
          <mxGeometry relative="1" as="geometry">
            <mxPoint x="1275" y="600" as="targetPoint" />
          </mxGeometry>
        </mxCell>
        <mxCell id="CEHg5lTLm4kWdgyplVmB-172" style="edgeStyle=orthogonalEdgeStyle;rounded=0;orthogonalLoop=1;jettySize=auto;html=1;exitX=0.5;exitY=1;exitDx=0;exitDy=0;" parent="WIyWlLk6GJQsqaUBKTNV-1" source="CEHg5lTLm4kWdgyplVmB-137" target="CEHg5lTLm4kWdgyplVmB-113" edge="1">
          <mxGeometry relative="1" as="geometry">
            <Array as="points">
              <mxPoint x="1085" y="700" />
              <mxPoint x="865" y="700" />
            </Array>
          </mxGeometry>
        </mxCell>
        <mxCell id="CEHg5lTLm4kWdgyplVmB-173" style="edgeStyle=orthogonalEdgeStyle;rounded=0;orthogonalLoop=1;jettySize=auto;html=1;exitX=0;exitY=0.5;exitDx=0;exitDy=0;entryX=0.5;entryY=0;entryDx=0;entryDy=0;" parent="WIyWlLk6GJQsqaUBKTNV-1" source="CEHg5lTLm4kWdgyplVmB-137" target="CEHg5lTLm4kWdgyplVmB-138" edge="1">
          <mxGeometry relative="1" as="geometry" />
        </mxCell>
        <mxCell id="CEHg5lTLm4kWdgyplVmB-137" value="count == insuFlag&amp;nbsp;" style="rhombus;whiteSpace=wrap;html=1;" parent="WIyWlLk6GJQsqaUBKTNV-1" vertex="1">
          <mxGeometry x="1007" y="535" width="155" height="30" as="geometry" />
        </mxCell>
        <mxCell id="CEHg5lTLm4kWdgyplVmB-148" style="edgeStyle=orthogonalEdgeStyle;rounded=0;orthogonalLoop=1;jettySize=auto;html=1;" parent="WIyWlLk6GJQsqaUBKTNV-1" source="CEHg5lTLm4kWdgyplVmB-138" edge="1">
          <mxGeometry relative="1" as="geometry">
            <mxPoint x="1085" y="615" as="targetPoint" />
          </mxGeometry>
        </mxCell>
        <mxCell id="CEHg5lTLm4kWdgyplVmB-138" value="read&lt;br&gt;인수날짜" style="shape=parallelogram;perimeter=parallelogramPerimeter;whiteSpace=wrap;html=1;fixedSize=1;" parent="WIyWlLk6GJQsqaUBKTNV-1" vertex="1">
          <mxGeometry x="870" y="600" width="83" height="30" as="geometry" />
        </mxCell>
        <mxCell id="CEHg5lTLm4kWdgyplVmB-149" style="edgeStyle=orthogonalEdgeStyle;rounded=0;orthogonalLoop=1;jettySize=auto;html=1;" parent="WIyWlLk6GJQsqaUBKTNV-1" edge="1">
          <mxGeometry relative="1" as="geometry">
            <mxPoint x="1085" y="615" as="targetPoint" />
            <mxPoint x="1225" y="615" as="sourcePoint" />
          </mxGeometry>
        </mxCell>
        <mxCell id="CEHg5lTLm4kWdgyplVmB-140" value="read&lt;br&gt;인수날짜 + 1" style="shape=parallelogram;perimeter=parallelogramPerimeter;whiteSpace=wrap;html=1;fixedSize=1;" parent="WIyWlLk6GJQsqaUBKTNV-1" vertex="1">
          <mxGeometry x="1185" y="600" width="120" height="30" as="geometry" />
        </mxCell>
        <mxCell id="CEHg5lTLm4kWdgyplVmB-142" value="YES" style="text;html=1;strokeColor=none;fillColor=none;align=center;verticalAlign=middle;whiteSpace=wrap;rounded=0;" parent="WIyWlLk6GJQsqaUBKTNV-1" vertex="1">
          <mxGeometry x="939.5" y="565" width="40" height="20" as="geometry" />
        </mxCell>
        <mxCell id="CEHg5lTLm4kWdgyplVmB-143" value="NO" style="text;html=1;strokeColor=none;fillColor=none;align=center;verticalAlign=middle;whiteSpace=wrap;rounded=0;" parent="WIyWlLk6GJQsqaUBKTNV-1" vertex="1">
          <mxGeometry x="1265" y="565" width="40" height="20" as="geometry" />
        </mxCell>
        <mxCell id="CEHg5lTLm4kWdgyplVmB-157" style="edgeStyle=orthogonalEdgeStyle;rounded=0;orthogonalLoop=1;jettySize=auto;html=1;exitX=1;exitY=0.5;exitDx=0;exitDy=0;" parent="WIyWlLk6GJQsqaUBKTNV-1" source="CEHg5lTLm4kWdgyplVmB-152" target="CEHg5lTLm4kWdgyplVmB-154" edge="1">
          <mxGeometry relative="1" as="geometry" />
        </mxCell>
        <mxCell id="RZ1_HY4zXpPiNoOnuPK8-2" style="edgeStyle=orthogonalEdgeStyle;rounded=0;orthogonalLoop=1;jettySize=auto;html=1;exitX=0.5;exitY=1;exitDx=0;exitDy=0;entryX=0.5;entryY=0;entryDx=0;entryDy=0;" edge="1" parent="WIyWlLk6GJQsqaUBKTNV-1" source="CEHg5lTLm4kWdgyplVmB-152" target="CEHg5lTLm4kWdgyplVmB-155">
          <mxGeometry relative="1" as="geometry" />
        </mxCell>
        <mxCell id="CEHg5lTLm4kWdgyplVmB-152" value="count == insuFlag&amp;nbsp;&lt;br&gt;&amp;nbsp;|| count == 0" style="rhombus;whiteSpace=wrap;html=1;" parent="WIyWlLk6GJQsqaUBKTNV-1" vertex="1">
          <mxGeometry x="727.51" y="912.5" width="274.5" height="45" as="geometry" />
        </mxCell>
        <mxCell id="CEHg5lTLm4kWdgyplVmB-174" style="edgeStyle=orthogonalEdgeStyle;rounded=0;orthogonalLoop=1;jettySize=auto;html=1;exitX=1;exitY=0.5;exitDx=0;exitDy=0;entryX=0.5;entryY=0;entryDx=0;entryDy=0;" parent="WIyWlLk6GJQsqaUBKTNV-1" source="CEHg5lTLm4kWdgyplVmB-154" target="CEHg5lTLm4kWdgyplVmB-124" edge="1">
          <mxGeometry relative="1" as="geometry">
            <Array as="points">
              <mxPoint x="1340" y="935" />
              <mxPoint x="1340" y="480" />
              <mxPoint x="865" y="480" />
            </Array>
          </mxGeometry>
        </mxCell>
        <mxCell id="CEHg5lTLm4kWdgyplVmB-154" value="totalAmt += baseAmt&lt;br&gt;count--" style="rounded=0;whiteSpace=wrap;html=1;" parent="WIyWlLk6GJQsqaUBKTNV-1" vertex="1">
          <mxGeometry x="1120" y="920" width="120" height="30" as="geometry" />
        </mxCell>
        <mxCell id="CEHg5lTLm4kWdgyplVmB-166" style="edgeStyle=orthogonalEdgeStyle;rounded=0;orthogonalLoop=1;jettySize=auto;html=1;exitX=1;exitY=0.5;exitDx=0;exitDy=0;" parent="WIyWlLk6GJQsqaUBKTNV-1" source="CEHg5lTLm4kWdgyplVmB-155" target="CEHg5lTLm4kWdgyplVmB-165" edge="1">
          <mxGeometry relative="1" as="geometry" />
        </mxCell>
        <mxCell id="CEHg5lTLm4kWdgyplVmB-167" style="edgeStyle=orthogonalEdgeStyle;rounded=0;orthogonalLoop=1;jettySize=auto;html=1;exitX=0;exitY=0.5;exitDx=0;exitDy=0;" parent="WIyWlLk6GJQsqaUBKTNV-1" source="CEHg5lTLm4kWdgyplVmB-155" target="CEHg5lTLm4kWdgyplVmB-163" edge="1">
          <mxGeometry relative="1" as="geometry" />
        </mxCell>
        <mxCell id="CEHg5lTLm4kWdgyplVmB-155" value="count == 0" style="rhombus;whiteSpace=wrap;html=1;" parent="WIyWlLk6GJQsqaUBKTNV-1" vertex="1">
          <mxGeometry x="826.76" y="1090" width="79.5" height="30" as="geometry" />
        </mxCell>
        <mxCell id="CEHg5lTLm4kWdgyplVmB-158" value="NO" style="text;html=1;strokeColor=none;fillColor=none;align=center;verticalAlign=middle;whiteSpace=wrap;rounded=0;" parent="WIyWlLk6GJQsqaUBKTNV-1" vertex="1">
          <mxGeometry x="1045" y="920" width="40" height="20" as="geometry" />
        </mxCell>
        <mxCell id="CEHg5lTLm4kWdgyplVmB-159" value="YES" style="text;html=1;strokeColor=none;fillColor=none;align=center;verticalAlign=middle;whiteSpace=wrap;rounded=0;" parent="WIyWlLk6GJQsqaUBKTNV-1" vertex="1">
          <mxGeometry x="832.01" y="975" width="40" height="20" as="geometry" />
        </mxCell>
        <mxCell id="CEHg5lTLm4kWdgyplVmB-169" style="edgeStyle=orthogonalEdgeStyle;rounded=0;orthogonalLoop=1;jettySize=auto;html=1;exitX=0.5;exitY=1;exitDx=0;exitDy=0;" parent="WIyWlLk6GJQsqaUBKTNV-1" source="CEHg5lTLm4kWdgyplVmB-163" target="CEHg5lTLm4kWdgyplVmB-121" edge="1">
          <mxGeometry relative="1" as="geometry" />
        </mxCell>
        <mxCell id="CEHg5lTLm4kWdgyplVmB-163" value="read&lt;br&gt;반납시간&lt;br&gt;요금계산법" style="shape=parallelogram;perimeter=parallelogramPerimeter;whiteSpace=wrap;html=1;fixedSize=1;" parent="WIyWlLk6GJQsqaUBKTNV-1" vertex="1">
          <mxGeometry x="727.01" y="1130" width="90" height="40" as="geometry" />
        </mxCell>
        <mxCell id="CEHg5lTLm4kWdgyplVmB-168" style="edgeStyle=orthogonalEdgeStyle;rounded=0;orthogonalLoop=1;jettySize=auto;html=1;exitX=0.5;exitY=1;exitDx=0;exitDy=0;" parent="WIyWlLk6GJQsqaUBKTNV-1" source="CEHg5lTLm4kWdgyplVmB-165" target="CEHg5lTLm4kWdgyplVmB-121" edge="1">
          <mxGeometry relative="1" as="geometry" />
        </mxCell>
        <mxCell id="CEHg5lTLm4kWdgyplVmB-165" value="read&lt;br&gt;인수시간&lt;br&gt;요금계산법" style="shape=parallelogram;perimeter=parallelogramPerimeter;whiteSpace=wrap;html=1;fixedSize=1;" parent="WIyWlLk6GJQsqaUBKTNV-1" vertex="1">
          <mxGeometry x="912.01" y="1130" width="90" height="40" as="geometry" />
        </mxCell>
        <mxCell id="CEHg5lTLm4kWdgyplVmB-178" style="edgeStyle=orthogonalEdgeStyle;rounded=0;orthogonalLoop=1;jettySize=auto;html=1;exitX=0;exitY=0.5;exitDx=0;exitDy=0;entryX=0.5;entryY=0;entryDx=0;entryDy=0;" parent="WIyWlLk6GJQsqaUBKTNV-1" source="CEHg5lTLm4kWdgyplVmB-170" target="CEHg5lTLm4kWdgyplVmB-124" edge="1">
          <mxGeometry relative="1" as="geometry">
            <Array as="points">
              <mxPoint x="590" y="1371" />
              <mxPoint x="590" y="480" />
              <mxPoint x="865" y="480" />
            </Array>
          </mxGeometry>
        </mxCell>
        <mxCell id="CEHg5lTLm4kWdgyplVmB-230" style="edgeStyle=orthogonalEdgeStyle;rounded=0;orthogonalLoop=1;jettySize=auto;html=1;exitX=0.5;exitY=1;exitDx=0;exitDy=0;entryX=0.5;entryY=0;entryDx=0;entryDy=0;" parent="WIyWlLk6GJQsqaUBKTNV-1" source="CEHg5lTLm4kWdgyplVmB-170" target="CEHg5lTLm4kWdgyplVmB-184" edge="1">
          <mxGeometry relative="1" as="geometry" />
        </mxCell>
        <mxCell id="CEHg5lTLm4kWdgyplVmB-170" value="count == 0" style="rhombus;whiteSpace=wrap;html=1;" parent="WIyWlLk6GJQsqaUBKTNV-1" vertex="1">
          <mxGeometry x="807.86" y="1360" width="117.3" height="22.5" as="geometry" />
        </mxCell>
        <mxCell id="CEHg5lTLm4kWdgyplVmB-179" value="NO" style="text;html=1;strokeColor=none;fillColor=none;align=center;verticalAlign=middle;whiteSpace=wrap;rounded=0;" parent="WIyWlLk6GJQsqaUBKTNV-1" vertex="1">
          <mxGeometry x="560" y="1320" width="40" height="20" as="geometry" />
        </mxCell>
        <mxCell id="CEHg5lTLm4kWdgyplVmB-180" value="YES" style="text;html=1;strokeColor=none;fillColor=none;align=center;verticalAlign=middle;whiteSpace=wrap;rounded=0;" parent="WIyWlLk6GJQsqaUBKTNV-1" vertex="1">
          <mxGeometry x="776.39" y="1090" width="40" height="20" as="geometry" />
        </mxCell>
        <mxCell id="CEHg5lTLm4kWdgyplVmB-181" value="NO" style="text;html=1;strokeColor=none;fillColor=none;align=center;verticalAlign=middle;whiteSpace=wrap;rounded=0;" parent="WIyWlLk6GJQsqaUBKTNV-1" vertex="1">
          <mxGeometry x="916.64" y="1090" width="40" height="20" as="geometry" />
        </mxCell>
        <mxCell id="CEHg5lTLm4kWdgyplVmB-182" value="요금계산 끝" style="rounded=1;whiteSpace=wrap;html=1;" parent="WIyWlLk6GJQsqaUBKTNV-1" vertex="1">
          <mxGeometry x="304.5" y="2500" width="120" height="60" as="geometry" />
        </mxCell>
        <mxCell id="CEHg5lTLm4kWdgyplVmB-183" style="edgeStyle=orthogonalEdgeStyle;rounded=0;orthogonalLoop=1;jettySize=auto;html=1;exitX=0.5;exitY=1;exitDx=0;exitDy=0;entryX=0.5;entryY=0;entryDx=0;entryDy=0;" parent="WIyWlLk6GJQsqaUBKTNV-1" target="CEHg5lTLm4kWdgyplVmB-186" edge="1">
          <mxGeometry relative="1" as="geometry">
            <mxPoint x="364.5000000000001" y="1490" as="sourcePoint" />
          </mxGeometry>
        </mxCell>
        <mxCell id="CEHg5lTLm4kWdgyplVmB-184" value="read&lt;br&gt;상품코드" style="shape=parallelogram;perimeter=parallelogramPerimeter;whiteSpace=wrap;html=1;fixedSize=1;" parent="WIyWlLk6GJQsqaUBKTNV-1" vertex="1">
          <mxGeometry x="290" y="1460" width="149" height="30" as="geometry" />
        </mxCell>
        <mxCell id="CEHg5lTLm4kWdgyplVmB-185" style="edgeStyle=orthogonalEdgeStyle;rounded=0;orthogonalLoop=1;jettySize=auto;html=1;exitX=0.5;exitY=1;exitDx=0;exitDy=0;entryX=0.5;entryY=0;entryDx=0;entryDy=0;" parent="WIyWlLk6GJQsqaUBKTNV-1" source="CEHg5lTLm4kWdgyplVmB-186" target="CEHg5lTLm4kWdgyplVmB-196" edge="1">
          <mxGeometry relative="1" as="geometry" />
        </mxCell>
        <mxCell id="CEHg5lTLm4kWdgyplVmB-186" value="예약률 조회" style="rounded=0;whiteSpace=wrap;html=1;" parent="WIyWlLk6GJQsqaUBKTNV-1" vertex="1">
          <mxGeometry x="329.5" y="1510" width="70" height="30" as="geometry" />
        </mxCell>
        <mxCell id="CEHg5lTLm4kWdgyplVmB-187" style="edgeStyle=orthogonalEdgeStyle;rounded=0;orthogonalLoop=1;jettySize=auto;html=1;exitX=0.5;exitY=1;exitDx=0;exitDy=0;entryX=0.5;entryY=0;entryDx=0;entryDy=0;" parent="WIyWlLk6GJQsqaUBKTNV-1" source="CEHg5lTLm4kWdgyplVmB-188" target="CEHg5lTLm4kWdgyplVmB-201" edge="1">
          <mxGeometry relative="1" as="geometry" />
        </mxCell>
        <mxCell id="CEHg5lTLm4kWdgyplVmB-188" value="&amp;nbsp;가산률 조회" style="rounded=0;whiteSpace=wrap;html=1;" parent="WIyWlLk6GJQsqaUBKTNV-1" vertex="1">
          <mxGeometry x="322" y="1620" width="85" height="20" as="geometry" />
        </mxCell>
        <mxCell id="CEHg5lTLm4kWdgyplVmB-189" style="edgeStyle=orthogonalEdgeStyle;rounded=0;orthogonalLoop=1;jettySize=auto;html=1;exitX=0.5;exitY=1;exitDx=0;exitDy=0;entryX=0.5;entryY=0;entryDx=0;entryDy=0;" parent="WIyWlLk6GJQsqaUBKTNV-1" source="CEHg5lTLm4kWdgyplVmB-190" target="CEHg5lTLm4kWdgyplVmB-192" edge="1">
          <mxGeometry relative="1" as="geometry" />
        </mxCell>
        <mxCell id="CEHg5lTLm4kWdgyplVmB-190" value="read&lt;br&gt;인수시간, 반납시간" style="shape=parallelogram;perimeter=parallelogramPerimeter;whiteSpace=wrap;html=1;fixedSize=1;" parent="WIyWlLk6GJQsqaUBKTNV-1" vertex="1">
          <mxGeometry x="290" y="1790" width="149" height="30" as="geometry" />
        </mxCell>
        <mxCell id="CEHg5lTLm4kWdgyplVmB-191" style="edgeStyle=orthogonalEdgeStyle;rounded=0;orthogonalLoop=1;jettySize=auto;html=1;exitX=0.5;exitY=1;exitDx=0;exitDy=0;entryX=0.5;entryY=0;entryDx=0;entryDy=0;" parent="WIyWlLk6GJQsqaUBKTNV-1" source="CEHg5lTLm4kWdgyplVmB-192" target="CEHg5lTLm4kWdgyplVmB-206" edge="1">
          <mxGeometry relative="1" as="geometry" />
        </mxCell>
        <mxCell id="CEHg5lTLm4kWdgyplVmB-192" value="선호 가산률 조회" style="rounded=0;whiteSpace=wrap;html=1;" parent="WIyWlLk6GJQsqaUBKTNV-1" vertex="1">
          <mxGeometry x="317" y="1850" width="95" height="30" as="geometry" />
        </mxCell>
        <mxCell id="CEHg5lTLm4kWdgyplVmB-193" style="edgeStyle=orthogonalEdgeStyle;rounded=0;orthogonalLoop=1;jettySize=auto;html=1;exitX=0.5;exitY=1;exitDx=0;exitDy=0;entryX=0.5;entryY=0;entryDx=0;entryDy=0;" parent="WIyWlLk6GJQsqaUBKTNV-1" source="CEHg5lTLm4kWdgyplVmB-194" target="CEHg5lTLm4kWdgyplVmB-190" edge="1">
          <mxGeometry relative="1" as="geometry" />
        </mxCell>
        <mxCell id="CEHg5lTLm4kWdgyplVmB-194" value="요금 계산&lt;br&gt;totalAmt *= 가산률" style="rounded=0;whiteSpace=wrap;html=1;" parent="WIyWlLk6GJQsqaUBKTNV-1" vertex="1">
          <mxGeometry x="409.5" y="1709" width="120" height="30" as="geometry" />
        </mxCell>
        <mxCell id="CEHg5lTLm4kWdgyplVmB-195" style="edgeStyle=orthogonalEdgeStyle;rounded=0;orthogonalLoop=1;jettySize=auto;html=1;exitX=0.5;exitY=1;exitDx=0;exitDy=0;entryX=0.5;entryY=0;entryDx=0;entryDy=0;" parent="WIyWlLk6GJQsqaUBKTNV-1" source="CEHg5lTLm4kWdgyplVmB-196" target="CEHg5lTLm4kWdgyplVmB-188" edge="1">
          <mxGeometry relative="1" as="geometry" />
        </mxCell>
        <mxCell id="CEHg5lTLm4kWdgyplVmB-196" value="read&lt;br&gt;예약률, 상품코드" style="shape=parallelogram;perimeter=parallelogramPerimeter;whiteSpace=wrap;html=1;fixedSize=1;" parent="WIyWlLk6GJQsqaUBKTNV-1" vertex="1">
          <mxGeometry x="290" y="1560" width="149" height="30" as="geometry" />
        </mxCell>
        <mxCell id="CEHg5lTLm4kWdgyplVmB-197" style="edgeStyle=orthogonalEdgeStyle;rounded=0;orthogonalLoop=1;jettySize=auto;html=1;exitX=0.5;exitY=1;exitDx=0;exitDy=0;entryX=0.5;entryY=0;entryDx=0;entryDy=0;" parent="WIyWlLk6GJQsqaUBKTNV-1" source="CEHg5lTLm4kWdgyplVmB-198" target="CEHg5lTLm4kWdgyplVmB-208" edge="1">
          <mxGeometry relative="1" as="geometry">
            <Array as="points">
              <mxPoint x="469.5" y="1990" />
              <mxPoint x="364.5" y="1990" />
            </Array>
          </mxGeometry>
        </mxCell>
        <mxCell id="CEHg5lTLm4kWdgyplVmB-198" value="요금 계산&lt;br&gt;totalAmt *= 가산률" style="rounded=0;whiteSpace=wrap;html=1;" parent="WIyWlLk6GJQsqaUBKTNV-1" vertex="1">
          <mxGeometry x="409.5" y="1950" width="120" height="30" as="geometry" />
        </mxCell>
        <mxCell id="CEHg5lTLm4kWdgyplVmB-199" style="edgeStyle=orthogonalEdgeStyle;rounded=0;orthogonalLoop=1;jettySize=auto;html=1;exitX=1;exitY=0.5;exitDx=0;exitDy=0;" parent="WIyWlLk6GJQsqaUBKTNV-1" source="CEHg5lTLm4kWdgyplVmB-201" target="CEHg5lTLm4kWdgyplVmB-194" edge="1">
          <mxGeometry relative="1" as="geometry" />
        </mxCell>
        <mxCell id="CEHg5lTLm4kWdgyplVmB-200" style="edgeStyle=orthogonalEdgeStyle;rounded=0;orthogonalLoop=1;jettySize=auto;html=1;exitX=0.5;exitY=1;exitDx=0;exitDy=0;entryX=0.5;entryY=0;entryDx=0;entryDy=0;" parent="WIyWlLk6GJQsqaUBKTNV-1" source="CEHg5lTLm4kWdgyplVmB-201" target="CEHg5lTLm4kWdgyplVmB-190" edge="1">
          <mxGeometry relative="1" as="geometry" />
        </mxCell>
        <mxCell id="CEHg5lTLm4kWdgyplVmB-201" value="if(가산률 == null)" style="rhombus;whiteSpace=wrap;html=1;" parent="WIyWlLk6GJQsqaUBKTNV-1" vertex="1">
          <mxGeometry x="302" y="1650" width="125" height="40" as="geometry" />
        </mxCell>
        <mxCell id="CEHg5lTLm4kWdgyplVmB-202" value="NO" style="text;html=1;strokeColor=none;fillColor=none;align=center;verticalAlign=middle;whiteSpace=wrap;rounded=0;" parent="WIyWlLk6GJQsqaUBKTNV-1" vertex="1">
          <mxGeometry x="449.5" y="1640" width="40" height="20" as="geometry" />
        </mxCell>
        <mxCell id="CEHg5lTLm4kWdgyplVmB-203" value="YES" style="text;html=1;strokeColor=none;fillColor=none;align=center;verticalAlign=middle;whiteSpace=wrap;rounded=0;" parent="WIyWlLk6GJQsqaUBKTNV-1" vertex="1">
          <mxGeometry x="322" y="1730" width="40" height="20" as="geometry" />
        </mxCell>
        <mxCell id="CEHg5lTLm4kWdgyplVmB-204" style="edgeStyle=orthogonalEdgeStyle;rounded=0;orthogonalLoop=1;jettySize=auto;html=1;exitX=1;exitY=0.5;exitDx=0;exitDy=0;entryX=0.5;entryY=0;entryDx=0;entryDy=0;" parent="WIyWlLk6GJQsqaUBKTNV-1" source="CEHg5lTLm4kWdgyplVmB-206" target="CEHg5lTLm4kWdgyplVmB-198" edge="1">
          <mxGeometry relative="1" as="geometry" />
        </mxCell>
        <mxCell id="CEHg5lTLm4kWdgyplVmB-205" style="edgeStyle=orthogonalEdgeStyle;rounded=0;orthogonalLoop=1;jettySize=auto;html=1;exitX=0.5;exitY=1;exitDx=0;exitDy=0;entryX=0.5;entryY=0;entryDx=0;entryDy=0;" parent="WIyWlLk6GJQsqaUBKTNV-1" source="CEHg5lTLm4kWdgyplVmB-206" target="CEHg5lTLm4kWdgyplVmB-208" edge="1">
          <mxGeometry relative="1" as="geometry" />
        </mxCell>
        <mxCell id="CEHg5lTLm4kWdgyplVmB-206" value="if(가산률 == null)" style="rhombus;whiteSpace=wrap;html=1;" parent="WIyWlLk6GJQsqaUBKTNV-1" vertex="1">
          <mxGeometry x="302" y="1900" width="125" height="40" as="geometry" />
        </mxCell>
        <mxCell id="CEHg5lTLm4kWdgyplVmB-207" style="edgeStyle=orthogonalEdgeStyle;rounded=0;orthogonalLoop=1;jettySize=auto;html=1;exitX=0.5;exitY=1;exitDx=0;exitDy=0;entryX=0.5;entryY=0;entryDx=0;entryDy=0;" parent="WIyWlLk6GJQsqaUBKTNV-1" source="CEHg5lTLm4kWdgyplVmB-208" target="CEHg5lTLm4kWdgyplVmB-210" edge="1">
          <mxGeometry relative="1" as="geometry" />
        </mxCell>
        <mxCell id="CEHg5lTLm4kWdgyplVmB-208" value="read&lt;br&gt;운전자 연령" style="shape=parallelogram;perimeter=parallelogramPerimeter;whiteSpace=wrap;html=1;fixedSize=1;" parent="WIyWlLk6GJQsqaUBKTNV-1" vertex="1">
          <mxGeometry x="290" y="2010" width="149" height="30" as="geometry" />
        </mxCell>
        <mxCell id="CEHg5lTLm4kWdgyplVmB-209" style="edgeStyle=orthogonalEdgeStyle;rounded=0;orthogonalLoop=1;jettySize=auto;html=1;exitX=0.5;exitY=1;exitDx=0;exitDy=0;entryX=0.5;entryY=0;entryDx=0;entryDy=0;" parent="WIyWlLk6GJQsqaUBKTNV-1" source="CEHg5lTLm4kWdgyplVmB-210" target="CEHg5lTLm4kWdgyplVmB-213" edge="1">
          <mxGeometry relative="1" as="geometry" />
        </mxCell>
        <mxCell id="CEHg5lTLm4kWdgyplVmB-210" value="대여 연령별 가산률 조회" style="rounded=0;whiteSpace=wrap;html=1;" parent="WIyWlLk6GJQsqaUBKTNV-1" vertex="1">
          <mxGeometry x="297" y="2060" width="135" height="20" as="geometry" />
        </mxCell>
        <mxCell id="CEHg5lTLm4kWdgyplVmB-211" style="edgeStyle=orthogonalEdgeStyle;rounded=0;orthogonalLoop=1;jettySize=auto;html=1;exitX=1;exitY=0.5;exitDx=0;exitDy=0;entryX=0.5;entryY=0;entryDx=0;entryDy=0;" parent="WIyWlLk6GJQsqaUBKTNV-1" source="CEHg5lTLm4kWdgyplVmB-213" target="CEHg5lTLm4kWdgyplVmB-215" edge="1">
          <mxGeometry relative="1" as="geometry" />
        </mxCell>
        <mxCell id="CEHg5lTLm4kWdgyplVmB-212" style="edgeStyle=orthogonalEdgeStyle;rounded=0;orthogonalLoop=1;jettySize=auto;html=1;exitX=0.5;exitY=1;exitDx=0;exitDy=0;" parent="WIyWlLk6GJQsqaUBKTNV-1" source="CEHg5lTLm4kWdgyplVmB-213" target="CEHg5lTLm4kWdgyplVmB-221" edge="1">
          <mxGeometry relative="1" as="geometry" />
        </mxCell>
        <mxCell id="CEHg5lTLm4kWdgyplVmB-213" value="if(가산률 == null)" style="rhombus;whiteSpace=wrap;html=1;" parent="WIyWlLk6GJQsqaUBKTNV-1" vertex="1">
          <mxGeometry x="302" y="2100" width="125" height="40" as="geometry" />
        </mxCell>
        <mxCell id="CEHg5lTLm4kWdgyplVmB-214" style="edgeStyle=orthogonalEdgeStyle;rounded=0;orthogonalLoop=1;jettySize=auto;html=1;exitX=0.5;exitY=1;exitDx=0;exitDy=0;" parent="WIyWlLk6GJQsqaUBKTNV-1" source="CEHg5lTLm4kWdgyplVmB-215" target="CEHg5lTLm4kWdgyplVmB-221" edge="1">
          <mxGeometry relative="1" as="geometry" />
        </mxCell>
        <mxCell id="CEHg5lTLm4kWdgyplVmB-215" value="요금 계산&lt;br&gt;totalAmt *= 가산률" style="rounded=0;whiteSpace=wrap;html=1;" parent="WIyWlLk6GJQsqaUBKTNV-1" vertex="1">
          <mxGeometry x="389.5" y="2160" width="120" height="30" as="geometry" />
        </mxCell>
        <mxCell id="CEHg5lTLm4kWdgyplVmB-216" value="NO" style="text;html=1;strokeColor=none;fillColor=none;align=center;verticalAlign=middle;whiteSpace=wrap;rounded=0;" parent="WIyWlLk6GJQsqaUBKTNV-1" vertex="1">
          <mxGeometry x="469.5" y="1920" width="40" height="20" as="geometry" />
        </mxCell>
        <mxCell id="CEHg5lTLm4kWdgyplVmB-217" value="YES" style="text;html=1;strokeColor=none;fillColor=none;align=center;verticalAlign=middle;whiteSpace=wrap;rounded=0;" parent="WIyWlLk6GJQsqaUBKTNV-1" vertex="1">
          <mxGeometry x="329.5" y="1960" width="40" height="20" as="geometry" />
        </mxCell>
        <mxCell id="CEHg5lTLm4kWdgyplVmB-218" value="NO" style="text;html=1;strokeColor=none;fillColor=none;align=center;verticalAlign=middle;whiteSpace=wrap;rounded=0;" parent="WIyWlLk6GJQsqaUBKTNV-1" vertex="1">
          <mxGeometry x="442" y="2120" width="40" height="20" as="geometry" />
        </mxCell>
        <mxCell id="CEHg5lTLm4kWdgyplVmB-219" value="YES" style="text;html=1;strokeColor=none;fillColor=none;align=center;verticalAlign=middle;whiteSpace=wrap;rounded=0;" parent="WIyWlLk6GJQsqaUBKTNV-1" vertex="1">
          <mxGeometry x="329.5" y="2170" width="40" height="20" as="geometry" />
        </mxCell>
        <mxCell id="CEHg5lTLm4kWdgyplVmB-220" style="edgeStyle=orthogonalEdgeStyle;rounded=0;orthogonalLoop=1;jettySize=auto;html=1;exitX=0.5;exitY=1;exitDx=0;exitDy=0;entryX=0.5;entryY=0;entryDx=0;entryDy=0;" parent="WIyWlLk6GJQsqaUBKTNV-1" source="CEHg5lTLm4kWdgyplVmB-221" target="CEHg5lTLm4kWdgyplVmB-223" edge="1">
          <mxGeometry relative="1" as="geometry" />
        </mxCell>
        <mxCell id="CEHg5lTLm4kWdgyplVmB-221" value="read&lt;br&gt;거래처" style="shape=parallelogram;perimeter=parallelogramPerimeter;whiteSpace=wrap;html=1;fixedSize=1;" parent="WIyWlLk6GJQsqaUBKTNV-1" vertex="1">
          <mxGeometry x="290" y="2240" width="149" height="30" as="geometry" />
        </mxCell>
        <mxCell id="CEHg5lTLm4kWdgyplVmB-222" style="edgeStyle=orthogonalEdgeStyle;rounded=0;orthogonalLoop=1;jettySize=auto;html=1;exitX=0.5;exitY=1;exitDx=0;exitDy=0;entryX=0.5;entryY=0;entryDx=0;entryDy=0;" parent="WIyWlLk6GJQsqaUBKTNV-1" source="CEHg5lTLm4kWdgyplVmB-223" target="CEHg5lTLm4kWdgyplVmB-225" edge="1">
          <mxGeometry relative="1" as="geometry" />
        </mxCell>
        <mxCell id="CEHg5lTLm4kWdgyplVmB-223" value="법인별 가산률 조회" style="rounded=0;whiteSpace=wrap;html=1;" parent="WIyWlLk6GJQsqaUBKTNV-1" vertex="1">
          <mxGeometry x="309.5" y="2294" width="110" height="20" as="geometry" />
        </mxCell>
        <mxCell id="CEHg5lTLm4kWdgyplVmB-224" style="edgeStyle=orthogonalEdgeStyle;rounded=0;orthogonalLoop=1;jettySize=auto;html=1;exitX=1;exitY=0.5;exitDx=0;exitDy=0;entryX=0.5;entryY=0;entryDx=0;entryDy=0;" parent="WIyWlLk6GJQsqaUBKTNV-1" source="CEHg5lTLm4kWdgyplVmB-225" target="CEHg5lTLm4kWdgyplVmB-227" edge="1">
          <mxGeometry relative="1" as="geometry" />
        </mxCell>
        <mxCell id="CEHg5lTLm4kWdgyplVmB-238" style="edgeStyle=orthogonalEdgeStyle;rounded=0;orthogonalLoop=1;jettySize=auto;html=1;exitX=0.5;exitY=1;exitDx=0;exitDy=0;entryX=0.5;entryY=0;entryDx=0;entryDy=0;" parent="WIyWlLk6GJQsqaUBKTNV-1" source="CEHg5lTLm4kWdgyplVmB-225" target="CEHg5lTLm4kWdgyplVmB-182" edge="1">
          <mxGeometry relative="1" as="geometry" />
        </mxCell>
        <mxCell id="CEHg5lTLm4kWdgyplVmB-225" value="if(가산률 == null)" style="rhombus;whiteSpace=wrap;html=1;" parent="WIyWlLk6GJQsqaUBKTNV-1" vertex="1">
          <mxGeometry x="302" y="2340" width="125" height="40" as="geometry" />
        </mxCell>
        <mxCell id="CEHg5lTLm4kWdgyplVmB-239" style="edgeStyle=orthogonalEdgeStyle;rounded=0;orthogonalLoop=1;jettySize=auto;html=1;exitX=0.5;exitY=1;exitDx=0;exitDy=0;" parent="WIyWlLk6GJQsqaUBKTNV-1" source="CEHg5lTLm4kWdgyplVmB-227" target="CEHg5lTLm4kWdgyplVmB-182" edge="1">
          <mxGeometry relative="1" as="geometry" />
        </mxCell>
        <mxCell id="CEHg5lTLm4kWdgyplVmB-227" value="요금 계산&lt;br&gt;totalAmt *= 가산률" style="rounded=0;whiteSpace=wrap;html=1;" parent="WIyWlLk6GJQsqaUBKTNV-1" vertex="1">
          <mxGeometry x="399.5" y="2420" width="120" height="30" as="geometry" />
        </mxCell>
        <mxCell id="CEHg5lTLm4kWdgyplVmB-228" value="NO" style="text;html=1;strokeColor=none;fillColor=none;align=center;verticalAlign=middle;whiteSpace=wrap;rounded=0;" parent="WIyWlLk6GJQsqaUBKTNV-1" vertex="1">
          <mxGeometry x="449.5" y="2370" width="40" height="20" as="geometry" />
        </mxCell>
        <mxCell id="CEHg5lTLm4kWdgyplVmB-229" value="YES" style="text;html=1;strokeColor=none;fillColor=none;align=center;verticalAlign=middle;whiteSpace=wrap;rounded=0;" parent="WIyWlLk6GJQsqaUBKTNV-1" vertex="1">
          <mxGeometry x="329.5" y="2430" width="40" height="20" as="geometry" />
        </mxCell>
        <mxCell id="CEHg5lTLm4kWdgyplVmB-232" value="YES" style="text;html=1;strokeColor=none;fillColor=none;align=center;verticalAlign=middle;whiteSpace=wrap;rounded=0;" parent="WIyWlLk6GJQsqaUBKTNV-1" vertex="1">
          <mxGeometry x="864.25" y="1390" width="40" height="20" as="geometry" />
        </mxCell>
        <mxCell id="CEHg5lTLm4kWdgyplVmB-237" value="NO" style="text;html=1;strokeColor=none;fillColor=none;align=center;verticalAlign=middle;whiteSpace=wrap;rounded=0;" parent="WIyWlLk6GJQsqaUBKTNV-1" vertex="1">
          <mxGeometry x="792.01" y="360" width="40" height="20" as="geometry" />
        </mxCell>
        <mxCell id="RZ1_HY4zXpPiNoOnuPK8-0" value="read&lt;br&gt;거래처" style="shape=parallelogram;perimeter=parallelogramPerimeter;whiteSpace=wrap;html=1;fixedSize=1;" vertex="1" parent="WIyWlLk6GJQsqaUBKTNV-1">
          <mxGeometry x="658.86" y="160" width="149" height="30" as="geometry" />
        </mxCell>
        <mxCell id="RZ1_HY4zXpPiNoOnuPK8-1" value="요금계산법 = 요금계산법 조회" style="rounded=0;whiteSpace=wrap;html=1;" vertex="1" parent="WIyWlLk6GJQsqaUBKTNV-1">
          <mxGeometry x="618.86" y="225" width="170" height="15" as="geometry" />
        </mxCell>
      </root>
    </mxGraphModel>
  </diagram>
</mxfile>
